<mxfile host="Electron" agent="Mozilla/5.0 (Windows NT 10.0; Win64; x64) AppleWebKit/537.36 (KHTML, like Gecko) draw.io/28.0.6 Chrome/138.0.7204.100 Electron/37.2.3 Safari/537.36" version="28.0.6">
  <diagram name="Page-1" id="PHMvohRUEVgNubymU-vs">
    <mxGraphModel dx="983" dy="609" grid="0" gridSize="10" guides="1" tooltips="1" connect="1" arrows="1" fold="1" page="1" pageScale="1" pageWidth="1100" pageHeight="850" background="#CCFFFF" math="0" shadow="0">
      <root>
        <mxCell id="0" />
        <mxCell id="1" parent="0" />
        <mxCell id="Eri-Cns_gS7ZSVO39ITT-25" value="" style="rounded=1;whiteSpace=wrap;html=1;fillColor=#bac8d3;strokeColor=#23445d;" parent="1" vertex="1">
          <mxGeometry x="387" y="139" width="150" height="326" as="geometry" />
        </mxCell>
        <mxCell id="OwwPfKLU2fYkE-Yp375Q-1" value="SOURCES" style="swimlane;whiteSpace=wrap;html=1;" parent="1" vertex="1">
          <mxGeometry x="20" y="100" width="140" height="370" as="geometry" />
        </mxCell>
        <mxCell id="OwwPfKLU2fYkE-Yp375Q-11" value="" style="image;aspect=fixed;html=1;points=[];align=center;fontSize=12;image=img/lib/azure2/general/Folder_Blank.svg;" parent="OwwPfKLU2fYkE-Yp375Q-1" vertex="1">
          <mxGeometry x="35.5" y="94.5" width="69" height="56.00000000000001" as="geometry" />
        </mxCell>
        <mxCell id="OwwPfKLU2fYkE-Yp375Q-15" value="CRM" style="text;html=1;align=center;verticalAlign=middle;resizable=0;points=[];autosize=1;strokeColor=none;fillColor=none;" parent="OwwPfKLU2fYkE-Yp375Q-1" vertex="1">
          <mxGeometry x="45" y="111" width="50" height="30" as="geometry" />
        </mxCell>
        <mxCell id="OwwPfKLU2fYkE-Yp375Q-12" value="" style="image;aspect=fixed;html=1;points=[];align=center;fontSize=12;image=img/lib/azure2/general/Folder_Blank.svg;" parent="OwwPfKLU2fYkE-Yp375Q-1" vertex="1">
          <mxGeometry x="35.5" y="233.5" width="69" height="56.00000000000001" as="geometry" />
        </mxCell>
        <mxCell id="OwwPfKLU2fYkE-Yp375Q-16" value="ERP" style="text;html=1;align=center;verticalAlign=middle;resizable=0;points=[];autosize=1;strokeColor=none;fillColor=none;" parent="OwwPfKLU2fYkE-Yp375Q-1" vertex="1">
          <mxGeometry x="45" y="251" width="50" height="30" as="geometry" />
        </mxCell>
        <mxCell id="OwwPfKLU2fYkE-Yp375Q-2" value="CONSUME" style="swimlane;whiteSpace=wrap;html=1;" parent="1" vertex="1">
          <mxGeometry x="739" y="100" width="140" height="370" as="geometry" />
        </mxCell>
        <mxCell id="OwwPfKLU2fYkE-Yp375Q-64" value="" style="image;aspect=fixed;html=1;points=[];align=center;fontSize=12;image=img/lib/azure2/analytics/Power_BI_Embedded.svg;" parent="OwwPfKLU2fYkE-Yp375Q-2" vertex="1">
          <mxGeometry x="30" y="35" width="28.55" height="38.06" as="geometry" />
        </mxCell>
        <mxCell id="OwwPfKLU2fYkE-Yp375Q-65" value="" style="points=[];aspect=fixed;html=1;align=center;shadow=0;dashed=0;fillColor=#FF6A00;strokeColor=none;shape=mxgraph.alibaba_cloud.quickbi;" parent="OwwPfKLU2fYkE-Yp375Q-2" vertex="1">
          <mxGeometry x="80" y="40" width="27.88" height="28.06" as="geometry" />
        </mxCell>
        <mxCell id="OwwPfKLU2fYkE-Yp375Q-66" value="" style="image;aspect=fixed;html=1;points=[];align=center;fontSize=12;image=img/lib/azure2/general/Search_Grid.svg;" parent="OwwPfKLU2fYkE-Yp375Q-2" vertex="1">
          <mxGeometry x="50.46" y="140" width="39.07" height="38.5" as="geometry" />
        </mxCell>
        <mxCell id="OwwPfKLU2fYkE-Yp375Q-67" value="Machine Learning" style="sketch=0;outlineConnect=0;fontColor=#232F3E;gradientColor=none;strokeColor=#ffffff;fillColor=#232F3E;dashed=0;verticalLabelPosition=middle;verticalAlign=bottom;align=center;html=1;whiteSpace=wrap;fontSize=10;fontStyle=1;spacing=3;shape=mxgraph.aws4.productIcon;prIcon=mxgraph.aws4.deep_learning_amis;" parent="OwwPfKLU2fYkE-Yp375Q-2" vertex="1">
          <mxGeometry x="30" y="250" width="75" height="100" as="geometry" />
        </mxCell>
        <mxCell id="OwwPfKLU2fYkE-Yp375Q-68" value="BI &amp;amp; Reporting" style="text;html=1;align=center;verticalAlign=middle;whiteSpace=wrap;rounded=0;" parent="OwwPfKLU2fYkE-Yp375Q-2" vertex="1">
          <mxGeometry x="10" y="73.06" width="120" height="40" as="geometry" />
        </mxCell>
        <mxCell id="OwwPfKLU2fYkE-Yp375Q-69" value="Ad-Hoc SQL Queries" style="text;html=1;align=center;verticalAlign=middle;whiteSpace=wrap;rounded=0;" parent="OwwPfKLU2fYkE-Yp375Q-2" vertex="1">
          <mxGeometry x="10" y="178.5" width="120" height="30" as="geometry" />
        </mxCell>
        <mxCell id="O8NIydqyKvE5Uj1PdJWJ-1" value="Bronze Layer" style="rounded=1;whiteSpace=wrap;html=1;fillColor=#fa6800;fontColor=#FFFF33;strokeColor=#C73500;" parent="1" vertex="1">
          <mxGeometry x="210" y="98" width="150" height="29" as="geometry" />
        </mxCell>
        <mxCell id="O8NIydqyKvE5Uj1PdJWJ-2" value="" style="rounded=1;whiteSpace=wrap;html=1;fillColor=#fa6800;fontColor=#000000;strokeColor=#C73500;" parent="1" vertex="1">
          <mxGeometry x="208" y="139" width="150" height="326" as="geometry" />
        </mxCell>
        <mxCell id="O8NIydqyKvE5Uj1PdJWJ-7" value="crm_sales_details" style="rounded=1;whiteSpace=wrap;html=1;" parent="1" vertex="1">
          <mxGeometry x="223.5" y="169" width="120" height="23" as="geometry" />
        </mxCell>
        <mxCell id="O8NIydqyKvE5Uj1PdJWJ-8" value="crm_cust_info" style="rounded=1;whiteSpace=wrap;html=1;" parent="1" vertex="1">
          <mxGeometry x="224.5" y="211" width="120" height="23" as="geometry" />
        </mxCell>
        <mxCell id="O8NIydqyKvE5Uj1PdJWJ-9" value="crm_prd_info" style="rounded=1;whiteSpace=wrap;html=1;" parent="1" vertex="1">
          <mxGeometry x="224.5" y="249" width="120" height="23" as="geometry" />
        </mxCell>
        <mxCell id="O8NIydqyKvE5Uj1PdJWJ-11" style="edgeStyle=orthogonalEdgeStyle;rounded=0;orthogonalLoop=1;jettySize=auto;html=1;entryX=0;entryY=0.5;entryDx=0;entryDy=0;" parent="1" source="OwwPfKLU2fYkE-Yp375Q-11" target="O8NIydqyKvE5Uj1PdJWJ-8" edge="1">
          <mxGeometry relative="1" as="geometry" />
        </mxCell>
        <mxCell id="O8NIydqyKvE5Uj1PdJWJ-14" style="edgeStyle=orthogonalEdgeStyle;rounded=0;orthogonalLoop=1;jettySize=auto;html=1;entryX=0;entryY=0.5;entryDx=0;entryDy=0;" parent="1" source="OwwPfKLU2fYkE-Yp375Q-11" target="O8NIydqyKvE5Uj1PdJWJ-7" edge="1">
          <mxGeometry relative="1" as="geometry" />
        </mxCell>
        <mxCell id="O8NIydqyKvE5Uj1PdJWJ-16" style="edgeStyle=orthogonalEdgeStyle;rounded=0;orthogonalLoop=1;jettySize=auto;html=1;" parent="1" source="OwwPfKLU2fYkE-Yp375Q-11" target="O8NIydqyKvE5Uj1PdJWJ-9" edge="1">
          <mxGeometry relative="1" as="geometry" />
        </mxCell>
        <mxCell id="O8NIydqyKvE5Uj1PdJWJ-19" value="crm_prd_info" style="rounded=1;whiteSpace=wrap;html=1;" parent="1" vertex="1">
          <mxGeometry x="564.5" y="572" width="120" height="23" as="geometry" />
        </mxCell>
        <mxCell id="O8NIydqyKvE5Uj1PdJWJ-26" value="erp_cust_az12" style="rounded=1;whiteSpace=wrap;html=1;" parent="1" vertex="1">
          <mxGeometry x="224" y="308" width="120" height="23" as="geometry" />
        </mxCell>
        <mxCell id="O8NIydqyKvE5Uj1PdJWJ-27" value="erp_loc_a101" style="rounded=1;whiteSpace=wrap;html=1;" parent="1" vertex="1">
          <mxGeometry x="224.5" y="348" width="120" height="23" as="geometry" />
        </mxCell>
        <mxCell id="O8NIydqyKvE5Uj1PdJWJ-28" value="erp_px_cat_g1v2" style="rounded=1;whiteSpace=wrap;html=1;" parent="1" vertex="1">
          <mxGeometry x="225" y="388" width="120" height="23" as="geometry" />
        </mxCell>
        <mxCell id="O8NIydqyKvE5Uj1PdJWJ-30" style="edgeStyle=orthogonalEdgeStyle;rounded=0;orthogonalLoop=1;jettySize=auto;html=1;entryX=0;entryY=0.5;entryDx=0;entryDy=0;" parent="1" edge="1">
          <mxGeometry relative="1" as="geometry">
            <mxPoint x="124.5" y="366" as="sourcePoint" />
            <mxPoint x="225" y="366" as="targetPoint" />
          </mxGeometry>
        </mxCell>
        <mxCell id="O8NIydqyKvE5Uj1PdJWJ-32" style="edgeStyle=orthogonalEdgeStyle;rounded=0;orthogonalLoop=1;jettySize=auto;html=1;entryX=0;entryY=0.5;entryDx=0;entryDy=0;" parent="1" source="OwwPfKLU2fYkE-Yp375Q-16" target="O8NIydqyKvE5Uj1PdJWJ-26" edge="1">
          <mxGeometry relative="1" as="geometry" />
        </mxCell>
        <mxCell id="O8NIydqyKvE5Uj1PdJWJ-34" style="edgeStyle=orthogonalEdgeStyle;rounded=0;orthogonalLoop=1;jettySize=auto;html=1;entryX=0;entryY=0.5;entryDx=0;entryDy=0;" parent="1" source="OwwPfKLU2fYkE-Yp375Q-16" target="O8NIydqyKvE5Uj1PdJWJ-28" edge="1">
          <mxGeometry relative="1" as="geometry" />
        </mxCell>
        <mxCell id="Eri-Cns_gS7ZSVO39ITT-24" value="&lt;b&gt;Silver Layer&lt;/b&gt;" style="rounded=1;whiteSpace=wrap;html=1;fillColor=#bac8d3;strokeColor=#23445d;" parent="1" vertex="1">
          <mxGeometry x="389" y="98" width="150" height="29" as="geometry" />
        </mxCell>
        <mxCell id="Eri-Cns_gS7ZSVO39ITT-26" value="crm_sales_details" style="rounded=1;whiteSpace=wrap;html=1;fillColor=#f5f5f5;fontColor=#333333;strokeColor=#666666;" parent="1" vertex="1">
          <mxGeometry x="402.5" y="169" width="120" height="23" as="geometry" />
        </mxCell>
        <mxCell id="Eri-Cns_gS7ZSVO39ITT-27" value="crm_cust_info" style="rounded=1;whiteSpace=wrap;html=1;fillColor=#f5f5f5;fontColor=#333333;strokeColor=#666666;" parent="1" vertex="1">
          <mxGeometry x="403.5" y="211" width="120" height="23" as="geometry" />
        </mxCell>
        <mxCell id="Eri-Cns_gS7ZSVO39ITT-28" value="crm_prd_info" style="rounded=1;whiteSpace=wrap;html=1;fillColor=#f5f5f5;fontColor=#333333;strokeColor=#666666;" parent="1" vertex="1">
          <mxGeometry x="403.5" y="249" width="120" height="23" as="geometry" />
        </mxCell>
        <mxCell id="Eri-Cns_gS7ZSVO39ITT-29" value="erp_cust_az12" style="rounded=1;whiteSpace=wrap;html=1;fillColor=#f5f5f5;fontColor=#333333;strokeColor=#666666;" parent="1" vertex="1">
          <mxGeometry x="403" y="308" width="120" height="23" as="geometry" />
        </mxCell>
        <mxCell id="Eri-Cns_gS7ZSVO39ITT-30" value="erp_loc_a101" style="rounded=1;whiteSpace=wrap;html=1;fillColor=#f5f5f5;fontColor=#333333;strokeColor=#666666;" parent="1" vertex="1">
          <mxGeometry x="403.5" y="348" width="120" height="23" as="geometry" />
        </mxCell>
        <mxCell id="Eri-Cns_gS7ZSVO39ITT-31" value="erp_px_cat_g1v2" style="rounded=1;whiteSpace=wrap;html=1;fillColor=#f5f5f5;fontColor=#333333;strokeColor=#666666;" parent="1" vertex="1">
          <mxGeometry x="404" y="388" width="120" height="23" as="geometry" />
        </mxCell>
        <mxCell id="Eri-Cns_gS7ZSVO39ITT-34" value="" style="endArrow=classic;html=1;rounded=0;exitX=1;exitY=0.5;exitDx=0;exitDy=0;entryX=0;entryY=0.5;entryDx=0;entryDy=0;" parent="1" source="O8NIydqyKvE5Uj1PdJWJ-7" target="Eri-Cns_gS7ZSVO39ITT-26" edge="1">
          <mxGeometry width="50" height="50" relative="1" as="geometry">
            <mxPoint x="447" y="377" as="sourcePoint" />
            <mxPoint x="497" y="327" as="targetPoint" />
          </mxGeometry>
        </mxCell>
        <mxCell id="Eri-Cns_gS7ZSVO39ITT-37" value="" style="endArrow=classic;html=1;rounded=0;exitX=1;exitY=0.5;exitDx=0;exitDy=0;entryX=0;entryY=0.5;entryDx=0;entryDy=0;" parent="1" source="O8NIydqyKvE5Uj1PdJWJ-8" target="Eri-Cns_gS7ZSVO39ITT-27" edge="1">
          <mxGeometry width="50" height="50" relative="1" as="geometry">
            <mxPoint x="447" y="377" as="sourcePoint" />
            <mxPoint x="497" y="327" as="targetPoint" />
          </mxGeometry>
        </mxCell>
        <mxCell id="Eri-Cns_gS7ZSVO39ITT-38" value="" style="endArrow=classic;html=1;rounded=0;exitX=1;exitY=0.5;exitDx=0;exitDy=0;entryX=0;entryY=0.5;entryDx=0;entryDy=0;" parent="1" source="O8NIydqyKvE5Uj1PdJWJ-9" target="Eri-Cns_gS7ZSVO39ITT-28" edge="1">
          <mxGeometry width="50" height="50" relative="1" as="geometry">
            <mxPoint x="447" y="377" as="sourcePoint" />
            <mxPoint x="497" y="327" as="targetPoint" />
          </mxGeometry>
        </mxCell>
        <mxCell id="Eri-Cns_gS7ZSVO39ITT-39" value="" style="endArrow=classic;html=1;rounded=0;exitX=1;exitY=0.5;exitDx=0;exitDy=0;" parent="1" source="O8NIydqyKvE5Uj1PdJWJ-26" edge="1">
          <mxGeometry width="50" height="50" relative="1" as="geometry">
            <mxPoint x="447" y="377" as="sourcePoint" />
            <mxPoint x="405" y="320" as="targetPoint" />
          </mxGeometry>
        </mxCell>
        <mxCell id="Eri-Cns_gS7ZSVO39ITT-40" value="" style="endArrow=classic;html=1;rounded=0;exitX=1;exitY=0.5;exitDx=0;exitDy=0;entryX=0;entryY=0.5;entryDx=0;entryDy=0;" parent="1" source="O8NIydqyKvE5Uj1PdJWJ-27" target="Eri-Cns_gS7ZSVO39ITT-30" edge="1">
          <mxGeometry width="50" height="50" relative="1" as="geometry">
            <mxPoint x="447" y="377" as="sourcePoint" />
            <mxPoint x="497" y="327" as="targetPoint" />
          </mxGeometry>
        </mxCell>
        <mxCell id="AB8gxP7QH4qFYCBjZTA7-1" value="" style="rounded=1;whiteSpace=wrap;html=1;fillColor=#e3c800;strokeColor=#B09500;fontColor=#000000;" vertex="1" parent="1">
          <mxGeometry x="567" y="139" width="150" height="326" as="geometry" />
        </mxCell>
        <mxCell id="Eri-Cns_gS7ZSVO39ITT-41" value="" style="endArrow=classic;html=1;rounded=0;exitX=1;exitY=0.5;exitDx=0;exitDy=0;entryX=0;entryY=0.5;entryDx=0;entryDy=0;" parent="1" source="O8NIydqyKvE5Uj1PdJWJ-28" target="Eri-Cns_gS7ZSVO39ITT-31" edge="1">
          <mxGeometry width="50" height="50" relative="1" as="geometry">
            <mxPoint x="447" y="377" as="sourcePoint" />
            <mxPoint x="497" y="327" as="targetPoint" />
          </mxGeometry>
        </mxCell>
        <mxCell id="AB8gxP7QH4qFYCBjZTA7-2" value="&lt;b&gt;Gold Layer&lt;/b&gt;" style="rounded=1;whiteSpace=wrap;html=1;fillColor=#e3c800;strokeColor=#B09500;fontColor=#000000;" vertex="1" parent="1">
          <mxGeometry x="569" y="98" width="150" height="29" as="geometry" />
        </mxCell>
        <mxCell id="AB8gxP7QH4qFYCBjZTA7-3" value="fact_sales" style="rounded=1;whiteSpace=wrap;html=1;fillColor=light-dark(#e2d8d4, #675000);fontColor=#000000;strokeColor=#B09500;" vertex="1" parent="1">
          <mxGeometry x="582" y="178" width="120" height="23" as="geometry" />
        </mxCell>
        <mxCell id="AB8gxP7QH4qFYCBjZTA7-4" value="dim_customers" style="rounded=1;whiteSpace=wrap;html=1;fillColor=light-dark(#e2d8d4, #675000);fontColor=#000000;strokeColor=#B09500;" vertex="1" parent="1">
          <mxGeometry x="582" y="281" width="120" height="23" as="geometry" />
        </mxCell>
        <mxCell id="AB8gxP7QH4qFYCBjZTA7-5" value="dim_products" style="rounded=1;whiteSpace=wrap;html=1;fillColor=light-dark(#e2d8d4, #675000);fontColor=#000000;strokeColor=#B09500;" vertex="1" parent="1">
          <mxGeometry x="582" y="345" width="120" height="23" as="geometry" />
        </mxCell>
        <mxCell id="AB8gxP7QH4qFYCBjZTA7-10" value="" style="endArrow=classic;html=1;rounded=0;exitX=1;exitY=0.5;exitDx=0;exitDy=0;entryX=0;entryY=0.5;entryDx=0;entryDy=0;" edge="1" parent="1" source="Eri-Cns_gS7ZSVO39ITT-26" target="AB8gxP7QH4qFYCBjZTA7-3">
          <mxGeometry width="50" height="50" relative="1" as="geometry">
            <mxPoint x="639" y="279" as="sourcePoint" />
            <mxPoint x="689" y="229" as="targetPoint" />
          </mxGeometry>
        </mxCell>
        <mxCell id="AB8gxP7QH4qFYCBjZTA7-11" value="" style="endArrow=classic;html=1;rounded=0;exitX=1;exitY=0.5;exitDx=0;exitDy=0;entryX=0;entryY=0.5;entryDx=0;entryDy=0;jumpStyle=gap;" edge="1" parent="1" source="Eri-Cns_gS7ZSVO39ITT-29" target="AB8gxP7QH4qFYCBjZTA7-4">
          <mxGeometry width="50" height="50" relative="1" as="geometry">
            <mxPoint x="639" y="279" as="sourcePoint" />
            <mxPoint x="580" y="290" as="targetPoint" />
          </mxGeometry>
        </mxCell>
        <mxCell id="AB8gxP7QH4qFYCBjZTA7-12" value="" style="endArrow=classic;html=1;rounded=0;exitX=1;exitY=0.5;exitDx=0;exitDy=0;entryX=0;entryY=0.5;entryDx=0;entryDy=0;jumpStyle=gap;" edge="1" parent="1" source="Eri-Cns_gS7ZSVO39ITT-27" target="AB8gxP7QH4qFYCBjZTA7-4">
          <mxGeometry width="50" height="50" relative="1" as="geometry">
            <mxPoint x="639" y="279" as="sourcePoint" />
            <mxPoint x="689" y="229" as="targetPoint" />
          </mxGeometry>
        </mxCell>
        <mxCell id="AB8gxP7QH4qFYCBjZTA7-13" value="" style="endArrow=classic;html=1;rounded=0;exitX=1;exitY=0.5;exitDx=0;exitDy=0;entryX=0;entryY=0.75;entryDx=0;entryDy=0;jumpStyle=gap;" edge="1" parent="1" source="Eri-Cns_gS7ZSVO39ITT-30" target="AB8gxP7QH4qFYCBjZTA7-4">
          <mxGeometry width="50" height="50" relative="1" as="geometry">
            <mxPoint x="639" y="279" as="sourcePoint" />
            <mxPoint x="689" y="229" as="targetPoint" />
          </mxGeometry>
        </mxCell>
        <mxCell id="AB8gxP7QH4qFYCBjZTA7-14" value="" style="endArrow=classic;html=1;rounded=0;exitX=1;exitY=0.5;exitDx=0;exitDy=0;entryX=0;entryY=0.5;entryDx=0;entryDy=0;jumpStyle=gap;" edge="1" parent="1" source="Eri-Cns_gS7ZSVO39ITT-28" target="AB8gxP7QH4qFYCBjZTA7-5">
          <mxGeometry width="50" height="50" relative="1" as="geometry">
            <mxPoint x="639" y="279" as="sourcePoint" />
            <mxPoint x="689" y="229" as="targetPoint" />
          </mxGeometry>
        </mxCell>
        <mxCell id="AB8gxP7QH4qFYCBjZTA7-15" value="" style="endArrow=classic;html=1;rounded=0;exitX=1;exitY=0.5;exitDx=0;exitDy=0;entryX=0;entryY=0.5;entryDx=0;entryDy=0;jumpStyle=gap;" edge="1" parent="1" source="Eri-Cns_gS7ZSVO39ITT-31" target="AB8gxP7QH4qFYCBjZTA7-5">
          <mxGeometry width="50" height="50" relative="1" as="geometry">
            <mxPoint x="639" y="279" as="sourcePoint" />
            <mxPoint x="689" y="229" as="targetPoint" />
          </mxGeometry>
        </mxCell>
        <mxCell id="AB8gxP7QH4qFYCBjZTA7-18" value="" style="shape=flexArrow;endArrow=classic;html=1;rounded=0;exitX=1;exitY=0.5;exitDx=0;exitDy=0;fillColor=#1ba1e2;strokeColor=#006EAF;" edge="1" parent="1">
          <mxGeometry width="50" height="50" relative="1" as="geometry">
            <mxPoint x="350" y="437" as="sourcePoint" />
            <mxPoint x="397" y="437" as="targetPoint" />
          </mxGeometry>
        </mxCell>
        <mxCell id="AB8gxP7QH4qFYCBjZTA7-19" value="" style="shape=flexArrow;endArrow=classic;html=1;rounded=0;exitX=1;exitY=0.5;exitDx=0;exitDy=0;fillColor=#1ba1e2;strokeColor=#006EAF;" edge="1" parent="1">
          <mxGeometry width="50" height="50" relative="1" as="geometry">
            <mxPoint x="530" y="433" as="sourcePoint" />
            <mxPoint x="577" y="433" as="targetPoint" />
          </mxGeometry>
        </mxCell>
        <mxCell id="AB8gxP7QH4qFYCBjZTA7-21" value="" style="shape=flexArrow;endArrow=classic;html=1;rounded=0;fillColor=#1ba1e2;strokeColor=#006EAF;" edge="1" parent="1">
          <mxGeometry width="50" height="50" relative="1" as="geometry">
            <mxPoint x="150" y="436" as="sourcePoint" />
            <mxPoint x="221" y="436" as="targetPoint" />
          </mxGeometry>
        </mxCell>
        <mxCell id="AB8gxP7QH4qFYCBjZTA7-20" value="" style="shape=flexArrow;endArrow=classic;html=1;rounded=0;exitX=1;exitY=0.5;exitDx=0;exitDy=0;fillColor=#1ba1e2;strokeColor=#006EAF;" edge="1" parent="1">
          <mxGeometry width="50" height="50" relative="1" as="geometry">
            <mxPoint x="702" y="436" as="sourcePoint" />
            <mxPoint x="749" y="436" as="targetPoint" />
            <Array as="points">
              <mxPoint x="725" y="436" />
            </Array>
          </mxGeometry>
        </mxCell>
      </root>
    </mxGraphModel>
  </diagram>
</mxfile>
